<svg width="57px" height="87px" viewBox="-1662 601 57 87" version="1.1" xmlns="http://www.w3.org/2000/svg" xmlns:xlink="http://www.w3.org/1999/xlink">
    <!-- Generator: Sketch 41.2 (35397) - http://www.bohemiancoding.com/sketch -->
    <desc>Created with Sketch.</desc>
    <defs></defs>
    <g id="noun_599363_cc" stroke="none" stroke-width="1" fill="none" fill-rule="evenodd" transform="translate(-1662.000000, 601.000000)">
        <circle id="Oval" fill="#000000" cx="21.474" cy="29.658" r="2.678"></circle>
        <circle id="Oval" fill="#000000" cx="35.615" cy="29.658" r="2.678"></circle>
        <path d="M34.05,38.609 C33.659,37.996 32.841,37.815 32.224,38.2 C32.21,38.209 30.837,39.05 28.6,39.05 C26.359,39.05 24.876,38.206 24.832,38.181 C24.208,37.806 23.397,38.007 23.017,38.631 C22.637,39.257 22.836,40.072 23.462,40.452 C23.546,40.503 25.556,41.702 28.599,41.702 C31.611,41.702 33.457,40.561 33.657,40.43 C34.269,40.034 34.441,39.223 34.05,38.609 Z" id="Shape" fill="#000000"></path>
        <path d="M28.539,51.261 C17.464,51.261 8.455,42.251 8.455,31.176 C8.455,20.102 17.465,11.092 28.539,11.092 C39.613,11.092 48.623,20.102 48.623,31.176 C48.624,42.251 39.614,51.261 28.539,51.261 Z M28.539,15.092 C19.67,15.092 12.455,22.307 12.455,31.176 C12.455,40.045 19.67,47.261 28.539,47.261 C37.408,47.261 44.623,40.045 44.623,31.176 C44.623,22.307 37.408,15.092 28.539,15.092 Z" id="Shape" fill="#000000"></path>
        <path d="M28.539,86.067 C22.573,86.067 17.402,83.701 13.168,79.035 C1.562,66.243 0.053,39.069 1.14,27.914 C2.677,12.145 14.2,0.701 28.538,0.701 C43.042,0.701 54.566,12.154 55.938,27.935 C56.719,36.927 56.159,65.641 43.757,79.167 C39.562,83.746 34.441,86.067 28.539,86.067 Z M28.539,4.701 C16.303,4.701 6.455,14.627 5.122,28.303 C4.132,38.461 5.529,64.662 16.131,76.348 C19.623,80.197 23.682,82.068 28.539,82.068 C33.34,82.068 37.354,80.236 40.81,76.465 C51.392,64.924 52.888,39.019 51.954,28.281 C50.766,14.618 40.919,4.701 28.539,4.701 Z" id="Shape" fill="#000000"></path>
        <path d="M36.184,52.847 C33.742,52.847 31.617,54.196 30.506,56.187 C30.009,55.926 29.451,55.764 28.85,55.764 C28.034,55.764 27.291,56.047 26.689,56.506 C25.634,54.342 23.419,52.848 20.85,52.848 C17.26,52.848 17.26,65.848 20.85,65.848 C23.419,65.848 25.634,64.353 26.689,62.189 C27.291,62.648 28.034,62.931 28.85,62.931 C29.451,62.931 30.008,62.769 30.505,62.508 C31.616,64.499 33.741,65.848 36.183,65.848 C39.773,65.847 39.773,52.847 36.184,52.847 Z" id="Shape" fill="#000000"></path>
    </g>
</svg>