<svg width="56px" height="87px" viewBox="-1542 601 56 87" version="1.1" xmlns="http://www.w3.org/2000/svg" xmlns:xlink="http://www.w3.org/1999/xlink">
    <!-- Generator: Sketch 41.2 (35397) - http://www.bohemiancoding.com/sketch -->
    <desc>Created with Sketch.</desc>
    <defs>
        <rect id="path-1" x="22" y="37.9922418" width="12" height="3" rx="1.5"></rect>
        <mask id="mask-2" maskContentUnits="userSpaceOnUse" maskUnits="objectBoundingBox" x="0" y="0" width="12" height="3" fill="white">
            <use xlink:href="#path-1"></use>
        </mask>
    </defs>
    <g id="noun_599368_cc" stroke="none" stroke-width="1" fill="none" fill-rule="evenodd" transform="translate(-1542.000000, 601.000000)">
        <circle id="Oval" fill="#000000" cx="20.974" cy="29.658" r="2.678"></circle>
        <circle id="Oval" fill="#000000" cx="35.115" cy="29.658" r="2.678"></circle>
        <use id="Rectangle" stroke="#000000" mask="url(#mask-2)" stroke-width="2" fill="#000000" xlink:href="#path-1"></use>
        <path d="M38.374,13.964 C38.219,11.05 37.332,8.389 35.709,8.389 C33.267,8.389 31.142,9.738 30.031,11.729 C29.534,11.468 28.976,11.306 28.375,11.306 C27.56,11.306 26.816,11.589 26.214,12.048 C25.159,9.884 22.944,8.39 20.375,8.39 C18.753,8.39 17.866,11.046 17.71,13.956 C11.689,17.575 7.954,24.15 7.954,31.177 C7.954,42.252 16.964,51.262 28.038,51.262 C39.112,51.262 48.122,42.252 48.122,31.177 C48.124,24.101 44.406,17.59 38.374,13.964 Z M28.039,47.261 C19.17,47.261 11.955,40.045 11.955,31.176 C11.955,26.228 14.267,21.558 18.104,18.531 C18.533,20.193 19.288,21.389 20.375,21.389 C22.945,21.389 25.159,19.894 26.214,17.73 C26.816,18.189 27.559,18.472 28.375,18.472 C28.976,18.472 29.533,18.31 30.031,18.049 C31.142,20.04 33.267,21.389 35.709,21.389 C36.794,21.389 37.549,20.197 37.978,18.539 C41.818,21.561 44.124,26.192 44.124,31.176 C44.124,40.045 36.908,47.261 28.039,47.261 Z" id="Shape" fill="#000000"></path>
        <path d="M28.039,86.067 C22.073,86.067 16.902,83.701 12.668,79.035 C1.062,66.243 -0.447,39.069 0.64,27.914 C2.177,12.145 13.7,0.701 28.038,0.701 C42.542,0.701 54.066,12.154 55.438,27.935 C56.219,36.927 55.659,65.641 43.257,79.167 C39.062,83.746 33.941,86.067 28.039,86.067 Z M28.039,4.701 C15.803,4.701 5.955,14.627 4.622,28.303 C3.632,38.461 5.029,64.662 15.631,76.348 C19.123,80.197 23.182,82.068 28.039,82.068 C32.84,82.068 36.854,80.236 40.31,76.465 C50.892,64.924 52.388,39.019 51.454,28.281 C50.266,14.618 40.419,4.701 28.039,4.701 Z" id="Shape" fill="#000000"></path>
    </g>
</svg>